<svg width="64" height="64" viewBox="0 0 64 64" fill="none" xmlns="http://www.w3.org/2000/svg">
<path d="M63.5 32C63.5 32.1953 63.3916 32.4582 63.0196 32.7854C62.6501 33.1105 62.0759 33.4473 61.2895 33.782C59.7206 34.4496 57.4198 35.0623 54.5388 35.5808C48.7852 36.6165 40.8162 37.26 32 37.26C23.1838 37.26 15.2148 36.6165 9.46116 35.5808C6.58025 35.0623 4.2794 34.4496 2.71051 33.782C1.92407 33.4473 1.34991 33.1105 0.980364 32.7854C0.608369 32.4582 0.5 32.1953 0.5 32C0.5 31.8047 0.608369 31.5418 0.980364 31.2146C1.34991 30.8895 1.92407 30.5527 2.71051 30.218C4.2794 29.5503 6.58025 28.9377 9.46116 28.4191C15.2148 27.3835 23.1838 26.74 32 26.74C40.8162 26.74 48.7852 27.3835 54.5388 28.4191C57.4198 28.9377 59.7206 29.5503 61.2895 30.218C62.0759 30.5527 62.6501 30.8895 63.0196 31.2146C63.3916 31.5418 63.5 31.8047 63.5 32Z" stroke="#FF5722"/>
<path d="M63.5 32C63.5 32.1953 63.3916 32.4582 63.0196 32.7854C62.6501 33.1105 62.0759 33.4473 61.2895 33.782C59.7206 34.4496 57.4198 35.0623 54.5388 35.5808C48.7852 36.6165 40.8162 37.26 32 37.26C23.1838 37.26 15.2148 36.6165 9.46116 35.5808C6.58025 35.0623 4.2794 34.4496 2.71051 33.782C1.92407 33.4473 1.34991 33.1105 0.980364 32.7854C0.608369 32.4582 0.5 32.1953 0.5 32C0.5 31.8047 0.608369 31.5418 0.980364 31.2146C1.34991 30.8895 1.92407 30.5527 2.71051 30.218C4.2794 29.5503 6.58025 28.9377 9.46116 28.4191C15.2148 27.3835 23.1838 26.74 32 26.74C40.8162 26.74 48.7852 27.3835 54.5388 28.4191C57.4198 28.9377 59.7206 29.5503 61.2895 30.218C62.0759 30.5527 62.6501 30.8895 63.0196 31.2146C63.3916 31.5418 63.5 31.8047 63.5 32Z" stroke="url(#paint0_linear)"/>
<circle cx="32" cy="32" r="31.5" stroke="#FF5722"/>
<circle cx="32" cy="32" r="31.5" stroke="url(#paint1_linear)"/>
<path d="M19.741 31.347C18.8162 37.3225 17.3756 42.6218 15.8032 46.3564C15.0154 48.2274 14.2056 49.6789 13.4288 50.6252C12.6274 51.6015 11.9796 51.9018 11.5117 51.8294C11.0438 51.757 10.5171 51.2749 10.0482 50.102C9.59381 48.9652 9.26061 47.3368 9.07524 45.3153C8.70523 41.28 8.93387 35.7931 9.8586 29.8177C10.7833 23.8422 12.2239 18.5429 13.7964 14.8082C14.5841 12.9373 15.394 11.4858 16.1708 10.5395C16.9722 9.56323 17.62 9.26285 18.0879 9.33526C18.5558 9.40767 19.0825 9.88981 19.5513 11.0627C20.0058 12.1995 20.339 13.8279 20.5243 15.8494C20.8943 19.8847 20.6657 25.3716 19.741 31.347Z" stroke="url(#paint2_linear)"/>
<path d="M15.4494 31.4751C14.6816 25.4775 14.5969 19.9865 15.0726 15.9623C15.3109 13.9463 15.6867 12.3272 16.1708 11.2027C16.6702 10.0426 17.2093 9.57441 17.679 9.51429C18.1486 9.45417 18.7883 9.77143 19.5639 10.7684C20.3156 11.7347 21.0871 13.2069 21.8255 15.0979C23.2995 18.8725 24.6007 24.2078 25.3684 30.2054C26.1362 36.203 26.2209 41.6941 25.7452 45.7182C25.5069 47.7342 25.1311 49.3533 24.647 50.4778C24.1476 51.638 23.6085 52.1061 23.1388 52.1663C22.6692 52.2264 22.0295 51.9091 21.2539 50.9122C20.5022 49.9459 19.7307 48.4736 18.9923 46.5826C17.5183 42.8081 16.2171 37.4728 15.4494 31.4751Z" stroke="url(#paint3_linear)"/>
<path d="M37.6668 31.0032C37.7128 37.0495 37.1411 42.5114 36.1882 46.4499C35.7108 48.423 35.1443 49.9857 34.5294 51.0443C33.895 52.1365 33.3038 52.5369 32.8303 52.5405C32.3568 52.5441 31.7596 52.1527 31.1087 51.0703C30.4778 50.0211 29.8876 48.4673 29.3803 46.5016C28.3677 42.5781 27.7131 37.1255 27.6671 31.0791C27.6212 25.0327 28.1929 19.5709 29.1458 15.6324C29.6232 13.6593 30.1896 12.0966 30.8045 11.038C31.439 9.94577 32.0302 9.54536 32.5036 9.54176C32.9771 9.53816 33.5743 9.92955 34.2253 11.012C34.8562 12.0611 35.4463 13.615 35.9536 15.5806C36.9663 19.5042 37.6209 24.9568 37.6668 31.0032Z" stroke="url(#paint4_linear)"/>
<path d="M48.9612 8.50004C45.8832 8.50536 43.2646 11.2318 41.4466 15.2498C39.6082 19.3129 38.4895 24.8884 38.5 31.0181C38.5106 37.1478 39.6486 42.7195 41.501 46.7762C43.3328 50.7879 45.9608 53.5053 49.0388 53.5C52.1169 53.4947 54.7355 50.7682 56.5535 46.7503C58.3919 42.6872 59.5106 37.1116 59.5 30.9819C59.4894 24.8522 58.3515 19.2805 56.4991 15.2238C54.6672 11.2122 52.0393 8.49473 48.9612 8.50004Z" stroke="url(#paint5_linear)"/>
<defs>
<linearGradient id="paint0_linear" x1="32" y1="26.24" x2="32" y2="37.76" gradientUnits="userSpaceOnUse">
<stop stop-color="#2BD5FB"/>
<stop offset="1" stop-color="white" stop-opacity="0"/>
</linearGradient>
<linearGradient id="paint1_linear" x1="32" y1="0" x2="32" y2="64" gradientUnits="userSpaceOnUse">
<stop stop-color="#00ADB5"/>
<stop offset="1" stop-color="#00ADB5" stop-opacity="0"/>
</linearGradient>
<linearGradient id="paint2_linear" x1="18.1644" y1="8.84114" x2="11.4352" y2="52.3235" gradientUnits="userSpaceOnUse">
<stop stop-color="#00D0FE"/>
<stop offset="1" stop-color="#2BD5FB" stop-opacity="0"/>
</linearGradient>
<linearGradient id="paint3_linear" x1="23.2023" y1="52.6622" x2="17.6155" y2="9.01834" gradientUnits="userSpaceOnUse">
<stop stop-color="#00D0FE"/>
<stop offset="1" stop-color="#2BD5FB" stop-opacity="0"/>
</linearGradient>
<linearGradient id="paint4_linear" x1="32.4998" y1="9.04177" x2="32.8341" y2="53.0405" gradientUnits="userSpaceOnUse">
<stop stop-color="#00D0FE"/>
<stop offset="1" stop-color="#2BD5FB" stop-opacity="0"/>
</linearGradient>
<linearGradient id="paint5_linear" x1="49.038" y1="53" x2="48.9621" y2="9.00004" gradientUnits="userSpaceOnUse">
<stop offset="0.223958" stop-color="#00D0FE"/>
<stop offset="1" stop-color="#2BD5FB" stop-opacity="0"/>
</linearGradient>
</defs>
</svg>
